<svg width="401" height="37" viewBox="0 0 401 37" fill="none" xmlns="http://www.w3.org/2000/svg">
<path d="M320.839 8.02918L312.73 16.0584L304.621 8.02918L312.73 0L320.839 8.02918Z" fill="#0055FF"/>
<path d="M201.471 8.35046H196.93L196.443 8.75192L191.74 24.4891L186.469 8.75192L185.982 8.35046H181.198L180.711 8.75192L175.44 24.4088L175.359 24.3285L170.656 8.75192L170.169 8.35046H165.547L165.223 8.75192L172.521 30.9125L173.089 31.3139H177.63L178.197 30.9125L183.387 15.0147H183.55L188.821 30.9125L189.307 31.3139H194.01L194.497 30.9125L201.795 8.75192L201.471 8.35046Z" fill="black"/>
<path d="M253.289 8.35046H248.667L248.18 8.75192L241.774 25.1315H241.693L235.287 8.75192L234.8 8.35046H230.097L229.853 8.75192L239.017 30.9125L239.503 31.3139H243.801L244.369 30.9125L253.614 8.75192L253.289 8.35046Z" fill="black"/>
<path d="M260.02 16.9416C260.75 14.2117 263.101 12.2044 266.183 12.2044C270.238 12.2044 271.859 15.0146 272.346 16.9416H260.02ZM277.049 21.0365L277.536 20.6351V19.9927C277.536 16.3796 276.482 13.3285 274.454 11.1606C272.427 8.99274 269.589 7.86865 266.183 7.86865C262.858 7.86865 260.101 9.07303 257.993 11.4015C255.884 13.73 254.83 16.5402 254.83 19.7518C254.83 23.2044 255.965 26.0146 258.155 28.2628C260.344 30.5109 263.182 31.635 266.669 31.635C269.183 31.635 271.373 31.073 273.076 29.8686C274.779 28.6642 276.644 26.7372 277.293 24.1679L276.968 23.7664H272.589L272.022 24.1679C270.967 26.2555 269.264 27.2993 266.588 27.2993C264.804 27.2993 263.264 26.6569 261.885 25.4526C260.669 24.3285 259.939 22.9635 259.695 20.9562L277.049 21.0365Z" fill="black"/>
<path d="M219.879 25.292C218.581 26.6569 216.96 27.2993 215.095 27.2993C213.229 27.2993 211.851 26.6569 210.553 25.2117C209.175 23.8467 208.526 22 208.526 19.6716C208.526 17.4234 209.175 15.5767 210.553 14.1314C211.932 12.7665 213.229 12.0438 215.095 12.0438C216.96 12.0438 218.581 12.6862 219.879 14.0511C220.771 14.9343 221.339 16.0584 221.663 17.3431V21.7591C221.42 23.365 220.771 24.4088 219.879 25.292ZM222.312 8.3504L221.825 8.75186V11L221.744 11.0803C221.176 10.3577 220.366 9.63507 219.392 9.07303C219.149 8.99274 218.906 8.83215 218.744 8.75186C217.446 8.10953 215.987 7.86865 214.365 7.86865C211.364 7.86865 208.769 9.07303 206.661 11.3212C204.471 13.5694 203.417 16.4599 203.417 19.8321C203.417 23.2044 204.471 26.0146 206.661 28.3431C208.85 30.5912 211.445 31.7956 214.365 31.7956C215.987 31.7956 217.365 31.4744 218.663 30.9124C218.906 30.8321 219.149 30.6715 219.392 30.5109C220.284 29.9489 221.095 29.3066 221.663 28.5839C221.663 28.5839 221.744 28.5839 221.825 28.5839V30.9124L222.312 31.3139H226.204L226.691 30.9124V8.75186L226.204 8.3504H222.312Z" fill="black"/>
<path d="M293.673 17.9854C293.673 17.9854 291.078 17.4234 288.97 17.0219C287.024 16.6205 286.051 16.0584 286.051 14.6935C286.051 13.2482 287.429 12.0438 290.511 12.0438C293.511 12.0438 295.133 13.3285 295.133 14.4526L295.619 14.854H299.917L300.242 14.4526C300.242 11.4818 297.566 7.86865 290.592 7.86865C283.293 7.86865 281.023 12.0438 281.023 14.6935C281.023 16.9416 281.834 19.5913 287.429 20.8759C287.429 20.8759 290.105 21.438 292.214 21.9197C294.646 22.4818 295.619 23.2847 295.619 24.6496C295.619 25.9343 294.322 27.4599 290.997 27.4599C287.916 27.4599 285.969 26.0146 285.888 24.2482L285.321 23.8467H280.942L280.617 24.2482C281.023 28.1022 283.942 31.7153 290.916 31.7153C298.863 31.7153 300.485 26.9781 300.485 24.4891C300.566 21.1971 298.62 19.0292 293.673 17.9854Z" fill="black"/>
<path d="M349.06 29.3064V31.3137H334.382V8.02905H336.571V29.3867H349.06V29.3064Z" fill="black"/>
<path d="M355.952 31.7152C352.709 31.7152 350.195 29.8684 350.195 26.9779C350.195 23.0436 354.087 21.5984 362.521 20.7955V20.1531C362.521 16.2188 360.169 15.3356 357.655 15.3356C354.736 15.3356 352.952 16.9415 352.79 19.1896H350.681C351.168 15.8174 353.925 13.5692 357.818 13.5692C361.872 13.5692 364.548 15.2553 364.548 20.394C364.548 22.8028 364.548 24.3283 364.548 25.6933C364.548 27.6203 364.629 29.3867 364.71 31.2334H362.602L362.521 28.5838C361.386 30.5108 359.196 31.7152 355.952 31.7152ZM362.521 23.3648V22.5619C355.385 23.3648 352.384 24.248 352.384 26.9779C352.384 28.8247 354.087 29.9487 356.358 29.9487C359.602 29.9487 362.521 28.2626 362.521 23.3648Z" fill="black"/>
<path d="M370.711 28.4232V31.3137H368.684V8.02905H370.711V17.0217C371.928 14.9342 374.036 13.7298 376.631 13.7298C380.686 13.7298 383.929 17.0217 383.929 22.7225C383.929 28.5035 380.686 31.7151 376.631 31.7151C374.036 31.7151 371.928 30.5108 370.711 28.4232ZM381.74 22.7225C381.74 18.1458 379.469 15.4962 376.226 15.4962C373.631 15.4962 370.63 17.5838 370.63 22.7225C370.63 27.8611 373.631 29.9487 376.226 29.9487C379.469 29.8684 381.74 27.2991 381.74 22.7225Z" fill="black"/>
<path d="M393.012 15.416C391.065 15.416 388.552 16.1386 388.552 18.2262C388.552 19.9123 389.93 20.7955 391.795 21.197L394.228 21.6787C397.066 22.1605 400.229 23.124 400.229 26.4159C400.229 29.8685 397.066 31.7152 393.255 31.7152C389.687 31.7152 386.524 29.9488 386.038 26.0145H388.146C388.552 28.7444 390.741 29.9488 393.417 29.9488C395.526 29.9488 398.121 29.0656 398.121 26.7371C398.121 24.7298 396.174 24.0072 393.823 23.5254L391.065 23.0437C388.552 22.5619 386.362 21.1167 386.362 18.3868C386.362 15.6568 389.119 13.6495 393.012 13.6495C396.742 13.6495 399.337 15.8977 399.742 18.7079H397.634C397.391 16.6203 395.526 15.416 393.012 15.416Z" fill="black"/>
<path d="M19.5617 15.1232C18.5798 10.4895 15.0814 8.03455 10.3556 8.03455C4.00344 8.03455 0.228943 12.7297 0.228943 19.5422C0.228943 26.2626 3.72726 31.0805 10.1102 31.0805C13.946 31.0805 16.3396 29.6689 17.6898 27.5515L17.7205 30.6815H19.5311V19.7263H11.3376V21.6289H17.5671V22.4574C17.5671 27.8277 13.4243 29.1165 10.1408 29.1165C5.56848 29.1165 2.40772 25.4648 2.40772 19.5422C2.40772 13.4048 5.84466 9.99851 10.2943 9.99851C13.3937 9.99851 16.493 11.4101 17.4137 15.1232H19.5617Z" fill="black"/>
<path d="M31.4105 16.1052V14.0799C31.2264 14.0492 31.0116 14.0492 30.8581 14.0492C28.8635 14.0492 26.7154 15.246 25.9789 17.1793V14.1719H24.1684V30.6815H26.0403V22.0278C26.0403 18.5295 27.145 16.0745 30.5513 16.0745C30.8275 16.0745 31.1036 16.0745 31.4105 16.1052Z" fill="black"/>
<path d="M43.9505 28.1652L44.0425 30.6815H45.9758C45.8837 28.9017 45.7917 27.2753 45.7917 25.4034C45.7917 24.0838 45.8224 22.5802 45.8224 20.3093C45.8224 15.3994 43.2753 13.8037 39.4395 13.8037C35.757 13.8037 33.118 15.9518 32.6883 19.2046H34.683C34.8364 17.0565 36.5242 15.4915 39.3167 15.4915C41.7103 15.4915 43.9198 16.32 43.9198 20.0638V20.6469C35.9718 21.4448 32.2894 22.8257 32.2894 26.5695C32.2894 29.3006 34.683 31.0805 37.7517 31.0805C40.8204 31.0805 42.8764 29.9144 43.9505 28.1652ZM38.1813 29.3927C36.0025 29.3927 34.4068 28.288 34.4068 26.5388C34.4068 23.9611 37.2914 23.0712 44.0118 22.3347V23.1325C44.0118 27.8277 41.25 29.3927 38.1813 29.3927Z" fill="black"/>
<path d="M51.7234 16.9645V14.1719H49.8208V30.6815H51.7234V21.5061C51.7234 18.0078 53.8715 15.6142 56.7254 15.6142C60.0702 15.6142 60.8681 17.7009 60.8681 20.8003V30.6815H62.7707V20.2787C62.7707 16.228 61.1136 13.8958 57.2164 13.8958C54.1477 13.8958 52.5212 15.3994 51.7234 16.9645Z" fill="black"/>
<path d="M67.6396 10.4588V14.1719H64.9085V15.829H67.6396V26.7536C67.6396 30.0064 68.3147 30.6815 71.2607 30.6815H72.8257V28.9631H71.8437C69.6343 28.9631 69.5729 28.5335 69.5729 26.3854V15.829H72.8257V14.1719H69.5729V10.4588H67.6396Z" fill="black"/>
<path d="M74.8137 22.4881C74.8137 27.6128 77.7596 31.0805 82.6082 31.0805C86.2292 31.0805 88.9604 29.1472 89.7582 25.7409H87.7636C87.1191 28.0118 85.3086 29.3313 82.7309 29.3313C79.3553 29.3313 76.839 26.9684 76.7776 22.9791H89.9117C90.1572 17.8237 87.2112 13.8958 82.5468 13.8958C78.1279 13.8958 74.8137 17.1486 74.8137 22.4881ZM76.839 21.2299C77.2379 17.5782 79.4474 15.6142 82.5161 15.6142C85.8303 15.6142 87.8249 18.4374 87.8249 21.2299H76.839Z" fill="black"/>
<path d="M98.949 13.8958C95.1438 13.8958 92.0444 17.0258 92.0444 22.4881C92.0444 27.9811 95.1438 31.0805 98.949 31.0805C101.373 31.0805 103.368 29.9451 104.534 27.9811V30.6815H106.437V8.43348H104.534V17.0258C103.368 15.0312 101.373 13.8958 98.949 13.8958ZM99.3479 15.6142C101.834 15.6142 104.657 17.6089 104.657 22.4881C104.657 27.3673 101.834 29.362 99.3479 29.362C96.2792 29.362 94.1004 26.8764 94.1004 22.4881C94.1004 18.0999 96.2792 15.6142 99.3479 15.6142Z" fill="black"/>
<path d="M125.815 31.0805C129.62 31.0805 132.719 27.9811 132.719 22.4881C132.719 17.0258 129.62 13.8958 125.815 13.8958C123.39 13.8958 121.396 15.0312 120.23 17.0258V8.43348H118.327V30.6815H120.23V27.9811C121.396 29.9451 123.39 31.0805 125.815 31.0805ZM125.416 29.362C122.93 29.362 120.107 27.3673 120.107 22.4881C120.107 17.6089 122.93 15.6142 125.416 15.6142C128.484 15.6142 130.663 18.0999 130.663 22.4881C130.663 26.8764 128.484 29.362 125.416 29.362Z" fill="black"/>
<path d="M135.15 36.0518H136.224C139.201 36.0518 139.999 35.5301 141.165 32.3386L147.947 14.1719H145.891L140.919 28.0425L135.795 14.1719H133.647L139.968 30.6815L139.446 32.0011C138.587 34.3026 137.82 34.3947 136.255 34.3947H135.15V36.0518Z" fill="black"/>
</svg>
